<svg viewBox="0 0 12 12" width="60px" height="60px" xmlns="http://www.w3.org/2000/svg"><path fill-rule="evenodd" d="M 3,0 8,0 8,2 10,2 10,3 11,3 11,10 0,10 0,3 1,3 1,2 3,2z M 6,6 6,7 5,7 5,6z" fill="#BD6BBD"/><path fill-rule="evenodd" d="M 4,1 7,1 7,2 4,2z" fill="#ffffff"/><path fill-rule="evenodd" d="M 2,3 3,3 3,5 2,5 2,6 1,6 1,4 2,4z" fill="#ffffff"/><path fill-rule="evenodd" d="M 8,3 9,3 9,4 10,4 10,6 9,6 9,5 8,5z" fill="#ffffff"/><path fill-rule="evenodd" d="M 5,4 6,4 6,5 5,5z" fill="#ffffff"/><path fill-rule="evenodd" d="M 3,6 4,6 4,9 3,9z" fill="#ffffff"/><path fill-rule="evenodd" d="M 7,6 8,6 8,9 7,9z" fill="#ffffff"/><path fill-rule="evenodd" d="M 1,8 2,8 2,9 1,9z" fill="#ffffff"/><path fill-rule="evenodd" d="M 5,8 6,8 6,9 5,9z" fill="#ffffff"/><path fill-rule="evenodd" d="M 9,8 10,8 10,9 9,9z" fill="#ffffff"/></svg>